<svg xmlns="http://www.w3.org/2000/svg" width="623.239" height="100.591" viewBox="0 0 623.239 100.591"><defs><style>.cls-1{fill:#fff;}</style></defs><g id="Layer_2" data-name="Layer 2"><g id="Layer_1-2" data-name="Layer 1"><path class="cls-1" d="M21.573,100.348c-6.92,0-12.328-2.311-16.073-6.87C1.851,89.039,0,82.987,0,75.492,0,62.9,1.524,48.1,4.53,31.49c1.641-9.255,3.643-15.638,6.119-19.5A22.281,22.281,0,0,1,20.28,3.331,35.791,35.791,0,0,1,34.733.365,75.858,75.858,0,0,1,44.776.786q2.52.405,2.831.467a1.807,1.807,0,0,1,.208.052,3.229,3.229,0,0,1,2.2,3.431A2,2,0,0,1,50,4.981L48.6,16.288c-.477,3.1-2.571,3.335-3.2,3.335a37.556,37.556,0,0,1-4.788-.538,39.6,39.6,0,0,0-5.424-.5c-3.334,0-5.851.8-7.482,2.384-1.176,1.14-2.815,3.839-3.952,10.221-.979,5.488-1.943,12.983-2.866,22.278-.922,9.27-1.389,16.453-1.389,21.351,0,6.005,2.923,6.814,5.781,6.814a66.949,66.949,0,0,0,7.573-.741c5.046-.686,6.2-.778,6.652-.778a3.218,3.218,0,0,1,3.276,3.519,2.254,2.254,0,0,1-.014.246l-1.4,11.306a3.85,3.85,0,0,1-1,2.2c-.5.5-.746.746-7.012,1.891A65.779,65.779,0,0,1,21.573,100.348ZM34.733,4.365A31.8,31.8,0,0,0,21.89,6.993a18.358,18.358,0,0,0-7.875,7.154C11.861,17.509,9.994,23.583,8.468,32.2,5.5,48.576,4,63.141,4,75.492c0,6.544,1.544,11.741,4.59,15.446,2.991,3.641,7.237,5.41,12.983,5.41a61.759,61.759,0,0,0,11.069-1c2.757-.5,4.125-.8,4.8-.965l1.26-10.2c-.8.084-2.341.271-5.306.673a68.807,68.807,0,0,1-8.112.778c-6.307,0-9.781-3.84-9.781-10.814,0-5.03.474-12.346,1.408-21.746s1.912-17,2.909-22.584c1.078-6.051,2.747-10.1,5.105-12.391,2.4-2.331,5.858-3.513,10.267-3.513a42.774,42.774,0,0,1,6,.538c1.791.263,2.847.389,3.468.448l1.3-10.545q-.668-.11-1.821-.295A70.552,70.552,0,0,0,34.733,4.365Z"/><path class="cls-1" d="M75.825,100.591c-7.406,0-13.121-2.279-16.986-6.775-3.789-4.4-5.711-9.956-5.711-16.5a229.452,229.452,0,0,1,4.722-46.3c2.583-12.411,6.141-20.555,10.879-24.9C73.235,2.055,79.2,0,86.464,0c7.366,0,13.071,2.3,16.958,6.838a24.469,24.469,0,0,1,5.739,16.407c0,6-.39,13.361-1.162,21.881a210.953,210.953,0,0,1-2.888,21.486c-1.159,5.817-2.12,9.955-2.935,12.65a49.332,49.332,0,0,1-3.388,8.27,24.006,24.006,0,0,1-5.251,7.022C89.094,98.557,83.132,100.591,75.825,100.591ZM86.464,4C80.218,4,75.157,5.708,71.421,9.078c-4.03,3.694-7.282,11.353-9.654,22.751a225.326,225.326,0,0,0-4.639,45.486c0,5.639,1.552,10.183,4.743,13.893,3.115,3.622,7.679,5.383,13.954,5.383S87.174,94.9,90.869,91.574A20.063,20.063,0,0,0,95.231,85.7a45.255,45.255,0,0,0,3.117-7.6c.766-2.535,1.722-6.664,2.84-12.273a206.889,206.889,0,0,0,2.827-21.065c.76-8.4,1.146-15.641,1.146-21.521A20.308,20.308,0,0,0,100.384,9.44C97.248,5.78,92.7,4,86.464,4ZM77.376,86.245A8.028,8.028,0,0,1,71,83.171c-1.593-1.946-2.367-5.054-2.367-9.5,0-3.98.494-10.868,1.469-20.474.973-9.588,1.962-17.3,2.937-22.906,1.846-10.579,5.72-15.942,11.515-15.942a8.328,8.328,0,0,1,6.833,3.138c1.534,1.963,2.279,5.01,2.279,9.317,0,3.861-.494,10.577-1.47,19.963-.971,9.352-1.958,17.28-2.93,23.563C87.636,80.889,83.637,86.245,77.376,86.245Zm7.173-67.9c-3.564,0-6.112,4.249-7.573,12.629-.96,5.517-1.936,13.129-2.9,22.623-.962,9.472-1.449,16.225-1.449,20.07,0,4.284.8,6.155,1.463,6.97a3.99,3.99,0,0,0,3.285,1.607c3.984,0,6.652-4.215,7.932-12.528.963-6.219,1.94-14.081,2.9-23.366.961-9.25,1.448-15.827,1.448-19.55,0-4.151-.777-6.018-1.431-6.853A4.3,4.3,0,0,0,84.549,18.346Z"/><path class="cls-1" d="M153.481,99.922c-.044,0-.089,0-.134,0a3.532,3.532,0,0,1-3.068-2.427l-12.3-31.174L134.618,96.2a3.5,3.5,0,0,1-3.417,3.3l-12.726.426a2.286,2.286,0,0,1-.249-.007,3.141,3.141,0,0,1-3.157-3.146,1.941,1.941,0,0,1,.013-.229L125.6,5.054a4.184,4.184,0,0,1,1.172-2.725c.611-.568,1.227-.89,7.634-1.44,4.055-.348,9.512-.524,16.219-.524,7.195,0,12.87,1.981,16.868,5.888a20.346,20.346,0,0,1,6.043,15.138,51.842,51.842,0,0,1-2.1,15.4,32.776,32.776,0,0,1-7.051,12.264A29.763,29.763,0,0,1,154,56.413l16.433,38.245a3.6,3.6,0,0,1,.363,1.562c0,1.484-.954,3.216-3.642,3.216l-13.6.485Zm13.346-3.539h0ZM136.888,56.107a2,2,0,0,1,1.859,1.266L153.953,95.9l12.475-.443L149.516,56.1a2,2,0,0,1,1.161-2.671A26.241,26.241,0,0,0,161.42,46.37a28.79,28.79,0,0,0,6.2-10.774,47.887,47.887,0,0,0,1.915-14.2c0-5.077-1.583-9.093-4.839-12.278-3.224-3.151-7.959-4.748-14.072-4.748-6.593,0-11.935.171-15.877.51-3.023.259-4.478.456-5.167.575,0,.017,0,.035-.007.053L119.183,95.9l11.488-.385L134.9,57.884a2.005,2.005,0,0,1,1.989-1.777Zm1.275-7.367a2,2,0,0,1-1.987-2.224l3.4-30.212a2,2,0,0,1,1.61-1.74,37.229,37.229,0,0,1,6.153-.339c3.321,0,5.947.916,7.806,2.723,1.9,1.85,2.826,4.785,2.826,8.972a28.114,28.114,0,0,1-2.482,11.416c-3.154,7.075-8.944,10.909-17.21,11.4C138.242,48.739,138.2,48.74,138.163,48.74Zm5.213-30.41-2.945,26.149a14.252,14.252,0,0,0,11.405-8.766,24.13,24.13,0,0,0,2.138-9.793c0-2.966-.558-5.077-1.614-6.1a6.989,6.989,0,0,0-5.018-1.59C145.51,18.225,144.247,18.269,143.376,18.33Z"/><path class="cls-1" d="M202.2,100.591c-7.406,0-13.121-2.279-16.987-6.775-3.789-4.405-5.711-9.957-5.711-16.5a229.452,229.452,0,0,1,4.722-46.3c2.584-12.413,6.143-20.556,10.88-24.9C199.611,2.055,205.573,0,212.84,0c7.366,0,13.072,2.3,16.959,6.838a24.475,24.475,0,0,1,5.739,16.407c0,6-.392,13.365-1.163,21.882a210.89,210.89,0,0,1-2.887,21.485c-1.16,5.817-2.12,9.955-2.935,12.65a49.429,49.429,0,0,1-3.388,8.269,23.994,23.994,0,0,1-5.253,7.024C215.47,98.557,209.508,100.591,202.2,100.591ZM212.84,4c-6.246,0-11.307,1.708-15.042,5.078-4.03,3.693-7.282,11.352-9.655,22.751A225.326,225.326,0,0,0,183.5,77.315c0,5.638,1.552,10.182,4.744,13.893,3.114,3.622,7.679,5.383,13.954,5.383s11.348-1.688,15.043-5.017a20.021,20.021,0,0,0,4.363-5.874,45.4,45.4,0,0,0,3.117-7.6c.765-2.534,1.721-6.664,2.84-12.273a206.772,206.772,0,0,0,2.826-21.065c.761-8.4,1.147-15.638,1.147-21.521A20.311,20.311,0,0,0,226.761,9.44C223.625,5.78,219.071,4,212.84,4Zm-9.088,82.245a8.026,8.026,0,0,1-6.38-3.074c-1.593-1.946-2.367-5.054-2.367-9.5,0-3.98.494-10.868,1.469-20.474.973-9.588,1.962-17.3,2.937-22.906,1.846-10.579,5.72-15.942,11.514-15.942a8.226,8.226,0,0,1,6.834,3.138c1.533,1.962,2.278,5.01,2.278,9.317,0,3.861-.494,10.577-1.47,19.963-.971,9.352-1.958,17.28-2.93,23.563C214.012,80.889,210.013,86.245,203.752,86.245Zm7.173-67.9c-3.564,0-6.112,4.249-7.572,12.629-.96,5.517-1.936,13.129-2.9,22.623-.962,9.472-1.449,16.225-1.449,20.07,0,4.284.8,6.155,1.463,6.97a3.99,3.99,0,0,0,3.284,1.607c3.984,0,6.652-4.215,7.932-12.528.962-6.219,1.94-14.081,2.905-23.366.961-9.25,1.448-15.827,1.448-19.55,0-4.152-.777-6.018-1.43-6.853A4.3,4.3,0,0,0,210.925,18.346Z"/><path class="cls-1" d="M277.365,99.922a3.128,3.128,0,0,1-3.191-2.841L264.326,47l-3.445,49.116a3.419,3.419,0,0,1-3.5,3.379l-12.533.425h0a3.1,3.1,0,0,1-3.4-3.153,1.907,1.907,0,0,1,.013-.227L251.975,4.569c0-.049.013-.1.022-.147a3.591,3.591,0,0,1,3.363-3.015L267.774.732A3.218,3.218,0,0,1,270.556,1.8a4.614,4.614,0,0,1,.856,1.942l9.431,46.872,3.219-45.955a3.4,3.4,0,0,1,3.56-3.257L299.686.732c.037,0,.073,0,.11,0a3.365,3.365,0,0,1,3.642,3.459,1.936,1.936,0,0,1-.013.228L292.969,95.961c0,.039-.01.077-.017.115a3.63,3.63,0,0,1-3.369,3.17l-12.106.673ZM255.908,5.381,245.56,95.891l11.354-.382,4.476-63.8a2,2,0,0,1,3.958-.246l12.666,64.422,11.007-.611L299.359,4.757l-11.338.627L283.8,65.663a2,2,0,0,1-3.956.254L267.536,4.751Zm45.53-1.193h0Z"/><path class="cls-1" d="M305.757,99.921a3.033,3.033,0,0,1-3.28-3.153,1.99,1.99,0,0,1,.079-.558L329.241,4.239A3.743,3.743,0,0,1,332.7,1.4L346.1.914a1.552,1.552,0,0,1,.167,0,3.347,3.347,0,0,1,3.3,3.281l0,.02,7.112,91.546c0,.051.006.1.006.155a3.427,3.427,0,0,1-3.428,3.513l-12.78.491h0a3.067,3.067,0,0,1-3.351-3.153l-.818-17.983L326,79.193,321.8,96.45a4.029,4.029,0,0,1-1.018,2.1,3.556,3.556,0,0,1-2.354.943l-12.667.43Zm35.365-3.259v0Zm-2.907-21.954a2,2,0,0,1,2,1.909l.875,19.276,11.558-.441L345.613,4.934l-12.541.456,0,.012L306.815,95.883l11.1-.375,4.56-18.726a2,2,0,0,1,1.864-1.526l13.8-.547Zm-10.639-8.4a2,2,0,0,1-1.943-2.474l8.51-34.892a2,2,0,0,1,3.941.383l1.58,34.527a2,2,0,0,1-1.926,2.09l-10.09.365Zm7.15-22.872-4.58,18.778,5.43-.2Z"/><path class="cls-1" d="M379.853,99.922l-.1,0a3.344,3.344,0,0,1-3.23-3.353v-.01L369.47,5.011c0-.051-.006-.1-.006-.154A3.377,3.377,0,0,1,373.031,1.4L385.682.974h0a3.1,3.1,0,0,1,3.4,3.154l2.253,54.033L404.105,4.4a4.307,4.307,0,0,1,.916-1.97,3.378,3.378,0,0,1,2.324-1.021L420.017.914h0a3.1,3.1,0,0,1,3.41,3.153,2.033,2.033,0,0,1-.079.558l-26.686,91.91c-.763,2.618-2.618,2.9-3.38,2.9l-13.361.485ZM373.511,5.386,380.482,95.9l12.332-.446.011-.034L419.09,4.957l-11.108.425L391.89,73.158a2,2,0,0,1-3.945-.379L385.12,5Zm19.7,90.052h0ZM385.088,4.211v0Z"/><path class="cls-1" d="M425.2,99.921a3.1,3.1,0,0,1-3.4-3.153,2.143,2.143,0,0,1,.012-.227L432.331,4.569c.006-.048.013-.1.023-.145a3.588,3.588,0,0,1,3.362-3.017c.038,0,.075-.006.112-.007L447.985.974c.05,0,.1,0,.149,0a3.349,3.349,0,0,1,3.5,3.458,1.874,1.874,0,0,1-.013.225L441.229,96.2a3.528,3.528,0,0,1-3.482,3.292l-12.54.426Zm11.06-94.534-10.349,90.5,11.36-.382L447.561,4.991Zm13.373-.955h0Z"/><path class="cls-1" d="M494.071,99.922c-.045,0-.09,0-.134,0a3.531,3.531,0,0,1-3.067-2.427l-12.3-31.174L475.209,96.2a3.5,3.5,0,0,1-3.417,3.3l-12.728.426a2.3,2.3,0,0,1-.25-.007,3.14,3.14,0,0,1-3.154-3.146,1.941,1.941,0,0,1,.013-.229L466.189,5.054a4.181,4.181,0,0,1,1.173-2.725c.611-.568,1.227-.89,7.634-1.44,4.056-.348,9.512-.524,16.219-.524,7.2,0,12.87,1.981,16.868,5.888a20.346,20.346,0,0,1,6.043,15.138,51.827,51.827,0,0,1-2.1,15.4,32.776,32.776,0,0,1-7.05,12.264A29.778,29.778,0,0,1,494.6,56.413l16.432,38.245a3.6,3.6,0,0,1,.363,1.562c0,1.484-.953,3.216-3.641,3.216l-13.606.485Zm13.347-3.54h0Zm-29.94-40.275a2,2,0,0,1,1.859,1.266L494.544,95.9l12.475-.443L490.106,56.1a2,2,0,0,1,1.162-2.671,26.271,26.271,0,0,0,10.744-7.059,28.793,28.793,0,0,0,6.2-10.774,47.876,47.876,0,0,0,1.916-14.2c0-5.077-1.583-9.093-4.839-12.278-3.225-3.151-7.959-4.748-14.072-4.748-6.593,0-11.935.171-15.877.51-3.024.259-4.479.456-5.167.575l-.006.051L459.773,95.9l11.489-.384,4.227-37.627a2.005,2.005,0,0,1,1.989-1.777Zm1.275-7.367a2,2,0,0,1-1.987-2.224l3.4-30.212a2,2,0,0,1,1.61-1.74,37.221,37.221,0,0,1,6.153-.339c3.319,0,5.946.916,7.806,2.723,1.9,1.85,2.825,4.785,2.825,8.972a28.129,28.129,0,0,1-2.481,11.416c-3.154,7.075-8.944,10.909-17.211,11.4C478.832,48.739,478.792,48.74,478.753,48.74Zm5.214-30.41-2.946,26.149a14.254,14.254,0,0,0,11.406-8.766,24.129,24.129,0,0,0,2.137-9.793c0-2.966-.557-5.077-1.613-6.1a6.992,6.992,0,0,0-5.018-1.59C486.1,18.225,484.838,18.269,483.967,18.33Z"/><path class="cls-1" d="M543.826,100.591c-7.222,0-12.87-1.964-16.785-5.836s-5.913-9.581-5.913-16.953a93.33,93.33,0,0,1,.621-10.5l7.173-62.733a3.8,3.8,0,0,1,.968-2.251,3.676,3.676,0,0,1,2.4-.915L544.638.974c.05,0,.1,0,.15,0a3.322,3.322,0,0,1,3.44,3.458,1.853,1.853,0,0,1-.013.223l-6.991,62.307a98.62,98.62,0,0,0-.838,9.989,6.018,6.018,0,0,0,1.263,3.917c.742.927,2.039,1.377,3.97,1.377,1.812,0,3.066-.85,4.065-2.758,1.216-2.322,2.146-6.218,2.762-11.579l7.113-63.335A3.518,3.518,0,0,1,563.1,1.4L575.387.914c.052,0,.106,0,.159,0a3.319,3.319,0,0,1,3.439,3.457,2.083,2.083,0,0,1-.012.223l-6.991,62.367c-1.488,13.387-4.918,22.368-10.486,27.454C556.953,98.516,551.012,100.591,543.826,100.591ZM532.854,5.385l-7.13,62.371a89.029,89.029,0,0,0-.6,10.046c0,6.263,1.59,11.01,4.726,14.108s7.84,4.681,13.972,4.681c6.164,0,11.2-1.729,14.982-5.137,4.744-4.334,7.842-12.726,9.2-24.936l6.9-61.582-11.416.452L556.421,68.36c-.684,5.939-1.729,10.184-3.194,12.983-2.123,4.052-5.309,4.9-7.608,4.9-3.181,0-5.567-.969-7.094-2.879a9.995,9.995,0,0,1-2.139-6.415A100.432,100.432,0,0,1,537.25,66.5l6.9-61.51Zm13.374-.953h0Z"/><path class="cls-1" d="M583.673,100.591a3.3,3.3,0,0,1-3.52-3.459,2.093,2.093,0,0,1,.014-.237l1.52-12.7a1.158,1.158,0,0,1,.018-.118,3.607,3.607,0,0,1,3.365-3.095c7.406-.759,10.394-1.876,11.592-2.679,1.428-.957,2.152-3.128,2.152-6.453,0-3.829-1.011-8.953-3.006-15.229-2.063-6.492-3.418-10.879-4.031-13.039-1.986-7.035-2.993-12.914-2.993-17.474A29.2,29.2,0,0,1,591.092,14a20.2,20.2,0,0,1,6.744-8.282C603.271,1.921,610.589,0,619.6,0a3.357,3.357,0,0,1,3.641,3.52,2.251,2.251,0,0,1-.016.259l-1.642,12.583a3.672,3.672,0,0,1-3.314,3.373c-6.642.446-9.982,2.126-9.982,5,0,3.6,1.659,10.961,4.931,21.888,3.431,11.458,5.1,19.49,5.1,24.554C618.315,90.694,606.66,100.591,583.673,100.591ZM585.63,84.94l-1.4,11.649c20.242-.15,30.083-8.467,30.083-25.413,0-4.605-1.659-12.48-4.931-23.407-3.431-11.458-5.1-18.993-5.1-23.035,0-5.292,4.488-8.306,13.34-8.963L619.159,4c-7.969.06-14.368,1.737-19.022,4.988a16.252,16.252,0,0,0-5.4,6.665A25.277,25.277,0,0,0,592.784,26.1c0,4.192.956,9.7,2.843,16.385.6,2.119,1.943,6.465,3.993,12.916,2.119,6.669,3.194,12.2,3.194,16.441,0,4.741-1.32,8.03-3.925,9.777C596.583,83.166,592.246,84.251,585.63,84.94Z"/></g></g></svg>