<svg xmlns="http://www.w3.org/2000/svg" width="148.8" height="24.15" viewBox="0 0 148.8 24.15"><defs><style>.cls-1{fill:#fff;}</style></defs><g id="Layer_2" data-name="Layer 2"><g id="Layer_1-2" data-name="Layer 1"><path class="cls-1" d="M52.05,18.5h-.2c-.274,0-.65,0-.65-1.05V5.422A1.841,1.841,0,0,0,49.15,3.8h-.7a.916.916,0,0,0-.85.95v.1a.81.81,0,0,0,.85.75h.4c.6,0,.65.038.65,1.65v3.788A5.044,5.044,0,0,0,45.95,9.5h-.408a5.1,5.1,0,0,0-3.65,1.706A5.025,5.025,0,0,0,40.6,14.95v.5a5,5,0,0,0,1.556,3.622A5.1,5.1,0,0,0,45.67,20.5q.09,0,.18,0a4.751,4.751,0,0,0,3.7-1.746,2.006,2.006,0,0,0,.709,1.1,2.083,2.083,0,0,0,1.493.442c.531,0,1.15-.249,1.15-.949A.9.9,0,0,0,52.05,18.5ZM49.5,15.237A3.555,3.555,0,0,1,45.95,18.7c-2.123,0-3.55-1.547-3.55-3.849S43.827,11,45.95,11h.275A3.533,3.533,0,0,1,49.4,14.827v.024A.643.643,0,0,0,49.5,15.237Z"/><path class="cls-1" d="M63.662,18.526c-.657-.328-.862-.684-.862-2.276a23.737,23.737,0,0,1,.1-2.7v-.6c0-2.422-1.261-3.65-3.75-3.65-1.968,0-4.05,1.054-4.05,2.05a.823.823,0,0,0,.85.85,1.016,1.016,0,0,0,.677-.273A3.372,3.372,0,0,1,59.05,10.9c1.4,0,2.05.62,2.05,1.95l.008.428a.451.451,0,0,1-.193.025,26.627,26.627,0,0,0-4.1.9A3.126,3.126,0,0,0,54.2,17.15l0,.127a3.585,3.585,0,0,0,3.481,3.244,3.252,3.252,0,0,0,.367-.021A4.338,4.338,0,0,0,61.5,18.894,2.206,2.206,0,0,0,63.35,20.2a.823.823,0,0,0,.85-.849A.922.922,0,0,0,63.662,18.526ZM61.1,14.9v.25c0,3.176-1.911,3.65-3.073,3.651a1.9,1.9,0,0,1-1.386-.442A1.781,1.781,0,0,1,56,17.15c0-1.251,1.552-1.647,5.05-2.25Zm.35,3.65c0-.014.011-.014.014-.025l.186.025h-.2Z"/><path class="cls-1" d="M70.95,9.6H68.9V7.25a.9.9,0,0,0-1.8-.1V9.7H65.85a.85.85,0,1,0,0,1.7H67.1V16.95c0,1,0,3.651,3.05,3.651.658,0,1.65,0,1.65-.951a.808.808,0,0,0-.75-.85h-.7c-1.487,0-1.55-.813-1.55-2.65,0-1,.035-2.229.064-3.212.02-.684.036-1.261.036-1.588V11.3h2.15a.808.808,0,0,0,.75-.85v-.1A.809.809,0,0,0,70.95,9.6Z"/><path class="cls-1" d="M82.861,18.526C82.205,18.2,82,17.842,82,16.25a23.5,23.5,0,0,1,.1-2.7v-.6c0-2.422-1.262-3.65-3.75-3.65-1.969,0-4.051,1.054-4.051,2.05a.823.823,0,0,0,.85.85,1.02,1.02,0,0,0,.677-.273A3.372,3.372,0,0,1,78.25,10.9c1.4,0,2.05.62,2.05,1.95l.008.428a.451.451,0,0,1-.193.025,26.653,26.653,0,0,0-4.1.9A3.125,3.125,0,0,0,73.4,17.15l0,.127a3.676,3.676,0,0,0,1.286,2.413,3.414,3.414,0,0,0,2.2.831,3.087,3.087,0,0,0,.359-.021A4.338,4.338,0,0,0,80.7,18.9a2.207,2.207,0,0,0,1.849,1.3.823.823,0,0,0,.85-.849A.923.923,0,0,0,82.861,18.526ZM80.3,14.9v.25c0,3.176-1.911,3.65-3.072,3.651a1.911,1.911,0,0,1-1.388-.442,1.784,1.784,0,0,1-.64-1.209c0-1.251,1.552-1.647,5.05-2.25Zm.35,3.65c0-.014.011-.014.014-.025l.186.025h-.2Z"/><path class="cls-1" d="M90.374,14.333a16.065,16.065,0,0,0-1.526-.713c-.336-.142-.65-.275-.886-.393A1.662,1.662,0,0,1,87,11.95c0-.554.485-1.15,1.55-1.15.308,0,1.85.075,1.85,1.55v.1a.857.857,0,0,0,1.7,0v-2.3c0-.432-.376-.684-.712-.908L91.326,9.2H91.25a.9.9,0,0,0-.724.538l-.026.069A3.455,3.455,0,0,0,88.65,9.3c-2.233,0-3.25,1.426-3.25,2.75a2.828,2.828,0,0,0,1.95,2.728c2.532,1.116,3.35,1.561,3.35,2.573,0,.951-.981,1.449-1.95,1.449-1.227,0-2.149-.758-2.149-1.25v-.5a.81.81,0,0,0-.851-.75.9.9,0,0,0-.85.85v2.4a.81.81,0,0,0,.85.75.655.655,0,0,0,.729-.587,3.681,3.681,0,0,0,2.271.687c2.731,0,3.75-1.932,3.749-3.171A3.563,3.563,0,0,0,90.374,14.333Z"/><path class="cls-1" d="M104.25,18.7h-.3a.641.641,0,0,1-.429-.233l-2.1-1.94c-1.483-1.368-2.194-2.022-2.375-2.223l.041-.043c.577-.367,2.578-1.646,4.077-2.687a1.265,1.265,0,0,1,.489-.174h.4a.9.9,0,0,0,.85-.85v-.2a.661.661,0,0,0-.278-.543.722.722,0,0,0-.608-.107H100.75a.81.81,0,0,0-.75.85c0,.53.388.686.761.732C97.887,13.249,97.579,13.4,97.45,13.4h-.038c-.112-.063-.112-.1-.112-.15V5.65c0-.457-.162-1.95-2.25-1.95-.472,0-1.35,0-1.35.95a.917.917,0,0,0,.95.85h.5c.246,0,.451.049.451.65v4.2c0,1.4-.028,2.885-.054,4.31-.024,1.318-.047,2.585-.047,3.691v.1a.21.21,0,0,1-.149.045h-.7a.9.9,0,0,0-.85.851v.1l.012.079a.956.956,0,0,0,.818.691.589.589,0,0,0,.155-.02H98.05a.809.809,0,0,0,.75-.849.9.9,0,0,0-.85-.851h-.7a.21.21,0,0,1-.045-.149v-2.3c0-.861.06-1.1.151-1.15a.66.66,0,0,1,.522.227c.3.3.816.779,1.4,1.316.71.66,1.509,1.4,2.163,2.045a2.659,2.659,0,0,1-.284.012h-.2l-.112.026a.924.924,0,0,0-.538.825v.1a.809.809,0,0,0,.85.75h3.175v0a.913.913,0,0,0,.765-.455.35.35,0,0,0,.011-.254V19.45A.81.81,0,0,0,104.25,18.7Z"/><path class="cls-1" d="M115.351,17.1a.982.982,0,0,0-.6.293,3.814,3.814,0,0,1-3,1.406h-.375a3.478,3.478,0,0,1-2.31-1.189,3.241,3.241,0,0,1-.765-2.462c0-.122.023-.164.051-.15h6.122a1.756,1.756,0,0,0,1.824-1.784A4.506,4.506,0,0,0,111.65,9.4h-.217a5.462,5.462,0,0,0-3.694,1.807A5.175,5.175,0,0,0,106.4,15.05v.3a5.207,5.207,0,0,0,5.25,5.149c2.929,0,4.532-1.818,4.647-2.509l.01-.061-.02-.059A.98.98,0,0,0,115.351,17.1Zm-7.018-3.739A3.387,3.387,0,0,1,111.55,11l.033,0A2.379,2.379,0,0,1,114.3,13.05c0,.131-.059.35-.449.35h-3C109.438,13.4,108.626,13.4,108.333,13.362Z"/><path class="cls-1" d="M121.2,11.35V11.3h.4v-.1h1.649a.85.85,0,1,0,0-1.7H121.2V7.05l-.012-.078a.983.983,0,0,0-.938-.772l-.079.013a.983.983,0,0,0-.771.937V9.7h-1.25a.85.85,0,1,0,0,1.7h1.25V16.95c0,1,0,3.651,3.05,3.651.657,0,1.651,0,1.651-.951a.81.81,0,0,0-.75-.85h-.7c-1.487,0-1.549-.813-1.549-2.65,0-1,.035-2.229.063-3.212C121.184,12.254,121.2,11.677,121.2,11.35Z"/><path class="cls-1" d="M134.351,17.1a.816.816,0,0,0-.8.4,3.168,3.168,0,0,1-2.6,1.2h-.188a3.436,3.436,0,0,1-2.448-1.214,3.774,3.774,0,0,1-.914-2.635v-.2a3.661,3.661,0,0,1,3.65-3.75,2.936,2.936,0,0,1,2.093.788c.151.229.157.357.157.862a.808.808,0,0,0,.85.75h.1a.9.9,0,0,0,.851-.85V9.95a.81.81,0,0,0-.851-.75.7.7,0,0,0-.742.545,5.329,5.329,0,0,0-7.708,5.106v.408a5.312,5.312,0,0,0,5.271,5.144q.092,0,.183,0a4.832,4.832,0,0,0,3.916-1.693A.8.8,0,0,0,135.3,18,.926.926,0,0,0,134.351,17.1Z"/><path class="cls-1" d="M147.95,18.5h-.6c-.1,0-.151-.022-.151-.149V12.937a3.693,3.693,0,0,0-1.259-2.574A3.749,3.749,0,0,0,143.25,9.4a4.424,4.424,0,0,0-3.149,1.211V5.65a1.744,1.744,0,0,0-1.75-1.85h-.6c-.334,0-1.35,0-1.35.95a.823.823,0,0,0,.85.85h.5c.38,0,.55.094.55.65V18.488c-.063.113-.1.113-.15.113h-.7a.9.9,0,0,0-.849.849v.1l.012.078a1.076,1.076,0,0,0,.509.616.675.675,0,0,0,.307.075.648.648,0,0,0,.157-.019h3.265a.85.85,0,0,0,0-1.7h-.705a.214.214,0,0,1-.045-.151l0-4.671A3.018,3.018,0,0,1,143.15,11.1h.183a2.425,2.425,0,0,1,1.6.734,2.1,2.1,0,0,1,.568,1.616v4.939c-.062.111-.095.111-.149.111h-.7a.9.9,0,0,0-.85.851v.1l.012.079a.9.9,0,0,0,.973.671h3.265a.809.809,0,0,0,.75-.849A.9.9,0,0,0,147.95,18.5Z"/><path class="cls-1" d="M25.2,13.418V2.45A2.483,2.483,0,0,0,22.75,0H2.45A2.483,2.483,0,0,0,0,2.45v14.7A2.483,2.483,0,0,0,2.45,19.6h8.9L8.173,22.773a.816.816,0,1,0,1.154,1.154L12.55,20.7l3.223,3.223a.821.821,0,0,0,.577.223h0a.819.819,0,0,0,.576-.223.862.862,0,0,0,0-1.154L13.754,19.6h9A2.483,2.483,0,0,0,25.2,17.15V15.419l6.011,4.039a.849.849,0,0,0,1.116-.131.541.541,0,0,0,.156-.4,1.183,1.183,0,0,0-.357-.758Zm-6.127-3.145a.674.674,0,0,0-.171.594.666.666,0,0,0,.307.49L23.5,14.282V17.15a.861.861,0,0,1-.85.85H2.45a.861.861,0,0,1-.85-.85V2.45a.861.861,0,0,1,.85-.85h20.3a.861.861,0,0,1,.85.85v9.926l-3.411-2.334A.77.77,0,0,0,19.073,10.273Z"/></g></g></svg>