<svg xmlns="http://www.w3.org/2000/svg" width="148.465" height="23.735" viewBox="0 0 148.465 23.735"><defs><style>.cls-1{fill:#fff;}</style></defs><g id="Layer_2" data-name="Layer 2"><g id="Layer_1-2" data-name="Layer 1"><path class="cls-1" d="M51.834,18.494a.589.589,0,0,1,.576.643c0,.62-.6.687-.885.687a1.817,1.817,0,0,1-2.018-1.573c-.022-.133-.044-.221-.11-.221-.022,0-.044.022-.089.067a4.612,4.612,0,0,1-3.7,1.861,4.937,4.937,0,0,1-5.031-5.294,4.961,4.961,0,0,1,5.028-5.252,4.455,4.455,0,0,1,3.5,1.595c.111.155.177.266.222.266s.066-.111.066-.4c0-1.13.022-2.7.022-3.988,0-1.507,0-1.883-.887-1.883a2.7,2.7,0,0,0-.355.023h-.044a.57.57,0,0,1-.62-.576.657.657,0,0,1,.686-.666c.222,0,.532-.022.732-.022A1.612,1.612,0,0,1,50.7,5.6v.088c-.022,1.861-.043,5.451-.042,8.485v3.014c0,1.063.377,1.329.865,1.328.11,0,.2-.022.288-.022ZM49.4,14.662a3.78,3.78,0,0,0-3.745-4.1c-2.238,0-3.766,1.551-3.765,4.1,0,2.525,1.551,4.076,3.766,4.076A3.788,3.788,0,0,0,49.4,14.662Z"/><path class="cls-1" d="M61.447,18.337c-.022-.067-.044-.111-.088-.111a.117.117,0,0,0-.088.067A4.1,4.1,0,0,1,57.9,20a3.3,3.3,0,0,1-3.59-3.057,2.959,2.959,0,0,1,2.37-2.748,35.622,35.622,0,0,1,4.1-.909c.266-.044.355-.111.355-.266,0-.111.022-.243.021-.354,0-1.219-.509-2.171-2.3-2.171a3.494,3.494,0,0,0-2.592,1.064.613.613,0,0,1-.465.221.6.6,0,0,1-.62-.6c0-.843,1.86-1.795,3.765-1.8,2.061,0,3.457.908,3.458,3.39a6.059,6.059,0,0,1-.022.62c-.067.731-.111,1.882-.111,2.724,0,1.618.156,2.149,1.042,2.46a.564.564,0,0,1,.377.553.6.6,0,0,1-.6.62A1.886,1.886,0,0,1,61.447,18.337Zm-.333-3.389V14.66c0-.178-.066-.244-.221-.244h-.066c-3.479.555-5.317,1-5.317,2.549a2.118,2.118,0,0,0,2.371,1.86C59.011,18.825,61.115,18.359,61.114,14.948Z"/><path class="cls-1" d="M68.823,10.8c-.354,0-.354.044-.354.31,0,.842-.066,3.124-.066,4.763,0,1.728.045,2.9,1.773,2.9.2,0,.4-.022.62-.044h.089a.55.55,0,0,1,.533.575c0,.576-.532.687-1.418.688-2.836,0-2.837-2.414-2.837-3.389,0-1.418.043-4.121.043-5.206v-.355c0-.221-.066-.243-.222-.243H65.677a.588.588,0,1,1,0-1.175h1.285c.2,0,.244-.022.243-.221,0-.089.022-1.152.022-1.928V6.927a.643.643,0,1,1,1.285.043c0,.643-.044,2.415-.044,2.415,0,.243.045.243.333.243h1.972a.57.57,0,0,1,.62.576.576.576,0,0,1-.62.6Z"/><path class="cls-1" d="M80.676,18.333c-.022-.067-.044-.111-.088-.111a.121.121,0,0,0-.089.066A4.09,4.09,0,0,1,77.132,20a3.3,3.3,0,0,1-3.59-3.057,2.961,2.961,0,0,1,2.371-2.747,35.622,35.622,0,0,1,4.1-.909c.266-.044.354-.111.354-.266,0-.111.023-.244.022-.355,0-1.218-.509-2.17-2.3-2.17a3.486,3.486,0,0,0-2.592,1.064.617.617,0,0,1-.466.221.6.6,0,0,1-.62-.6c0-.842,1.861-1.794,3.766-1.8,2.06,0,3.457.908,3.458,3.389a5.8,5.8,0,0,1-.023.62c-.066.731-.111,1.883-.11,2.725,0,1.618.156,2.149,1.041,2.459a.564.564,0,0,1,.378.554.6.6,0,0,1-.6.62A1.888,1.888,0,0,1,80.676,18.333Zm-.333-3.39v-.288c0-.177-.066-.244-.221-.244h-.067c-3.478.555-5.317,1-5.316,2.55a2.117,2.117,0,0,0,2.37,1.86C78.239,18.82,80.344,18.355,80.343,14.943Z"/><path class="cls-1" d="M91.641,9.956c-.022.465-.022.775-.022,1.107,0,.31,0,.643.022,1.153v.044a.545.545,0,0,1-.553.531.569.569,0,0,1-.621-.575c0-1.773-1.972-1.772-2.105-1.772-1.152,0-1.794.687-1.794,1.419a1.706,1.706,0,0,0,1.086,1.461c.62.288,1.683.731,2.37,1.085A3.17,3.17,0,0,1,92,17.156c0,1.218-.974,2.858-3.5,2.859a3.473,3.473,0,0,1-2.216-.731.284.284,0,0,0-.155-.089c-.045,0-.067.045-.067.111,0,.554-.266.621-.531.621a.535.535,0,0,1-.576-.532v-.044c.021-.488.043-.82.043-1.152s-.022-.665-.044-1.2v-.045a.582.582,0,0,1,.62-.576.569.569,0,0,1,.6.6c0,.155-.044.266-.044.421,0,.731,1.108,1.461,2.371,1.461,1.129,0,2.215-.643,2.215-1.706,0-1.174-.976-1.7-3.546-2.768a2.679,2.679,0,0,1-1.8-2.46c0-1.284,1.04-2.547,3.013-2.547a3.573,3.573,0,0,1,1.95.6.163.163,0,0,0,.133.044c.111,0,.089-.2.111-.266a.5.5,0,0,1,.508-.354.518.518,0,0,1,.555.532Z"/><path class="cls-1" d="M104.071,19.7c-.576-.022-1.107-.044-1.595-.044s-.975.022-1.485.045h-.044a.563.563,0,0,1-.6-.576.519.519,0,0,1,.6-.577c.577,0,.577-.133.577-.155a.164.164,0,0,0-.045-.089c-1.174-1.151-2.992-2.835-3.678-3.543a.8.8,0,0,0-.665-.266c-.332,0-.354.2-.354,1.352,0,.531,0,1.24.023,2.3a.339.339,0,0,0,.376.377,5.627,5.627,0,0,0,.62-.022h.023a.6.6,0,1,1,0,1.2H97.8c-.576-.022-1.152-.044-1.728-.043-.553,0-1.085.022-1.595.044a.573.573,0,0,1-.665-.576.609.609,0,0,1,.642-.62h.023c.265,0,.31.022.664.022a.35.35,0,0,0,.377-.377c.043-2.327.065-5.317.064-8.02,0-1.551-.023-3.035-.023-4.232,0-.62-.177-.863-.732-.886h-.509a.6.6,0,0,1-.62-.62c0-.575.4-.642,1.174-.642,1.817,0,1.972,1.174,1.972,1.661,0,2.858-.042,7.554-.042,7.554a.333.333,0,0,0,.377.355c.243,0,.332-.022,3.831-2.438.067-.044.089-.089.089-.111,0-.044-.044-.066-.155-.066-.4,0-.93,0-.93-.532a.563.563,0,0,1,.6-.576h.045c.553.022,1.041.022,1.551.022.487,0,1.019,0,1.595-.023a.54.54,0,0,1,.642.577.583.583,0,0,1-.62.575H103.8c-.31,0-.133-.022-.444-.022a1.063,1.063,0,0,0-.553.2c-1.307.886-3.013,2.039-4.1,2.748-.133.088-.177.155-.177.222,0,.154.576.686,4.586,4.363a.823.823,0,0,0,.643.265c.089,0,.2-.022.332-.022a.548.548,0,0,1,.621.576.591.591,0,0,1-.62.621Z"/><path class="cls-1" d="M111.4,19.987a4.95,4.95,0,0,1-5.009-5.227A5.065,5.065,0,0,1,111.333,9.4,4.127,4.127,0,0,1,115.7,13.03c0,.82-.487,1.44-1.617,1.485-.509.022-1.263.022-2.082.022-1.662,0-3.545-.021-4.032-.021-.222,0-.266.088-.266.4a3.618,3.618,0,0,0,3.722,3.9,3.972,3.972,0,0,0,3.213-1.463.626.626,0,0,1,.443-.2.677.677,0,0,1,.664.642C115.744,18.3,114.194,19.987,111.4,19.987Zm-.047-9.482a3.586,3.586,0,0,0-3.477,2.726c0,.221.2.221,2.769.221,1.152,0,2.393,0,3.013-.023.532-.022.731-.266.731-.621A2.782,2.782,0,0,0,111.356,10.505Z"/><path class="cls-1" d="M121.17,10.791c-.354,0-.354.044-.354.31,0,.842-.066,3.124-.066,4.763,0,1.728.045,2.9,1.773,2.9.2,0,.4-.022.62-.044h.089a.549.549,0,0,1,.532.576c0,.575-.531.686-1.418.686-2.836,0-2.836-2.414-2.836-3.388,0-1.418.043-4.121.043-5.207v-.355c0-.221-.066-.243-.222-.243h-1.307a.588.588,0,1,1,0-1.175h1.285c.2,0,.244-.023.243-.222,0-.088.022-1.152.022-1.927V6.914a.644.644,0,1,1,1.286.044c0,.643-.045,2.415-.045,2.415,0,.244.045.244.333.244h1.972a.588.588,0,1,1,0,1.174Z"/><path class="cls-1" d="M131.076,19.961a5.037,5.037,0,0,1-5.209-5.228,5.012,5.012,0,0,1,7.488-4.765c.044.022.066.045.111.045.066,0,.089-.134.111-.244.022-.266.287-.377.53-.377a.572.572,0,0,1,.643.554V9.99c-.021.466-.021.8-.021,1.153,0,.332,0,.686.021,1.195v.045a.571.571,0,0,1-.641.554.587.587,0,0,1-.621-.531c-.022-.466.044-.732-.221-1.042a2.91,2.91,0,0,0-2.26-.907,3.915,3.915,0,0,0-3.854,4.187,3.881,3.881,0,0,0,3.855,4.12,3.487,3.487,0,0,0,2.836-1.285.7.7,0,0,1,.576-.333.71.71,0,0,1,.709.687C135.129,18.475,133.468,19.96,131.076,19.961Z"/><path class="cls-1" d="M147.8,19.691c-.577-.022-1.153-.044-1.729-.044-.554,0-1.085.022-1.595.045a.572.572,0,0,1-.664-.576.609.609,0,0,1,.641-.621h.022c.288,0,.31.023.665.022a.343.343,0,0,0,.354-.377c0-.731.023-1.572.022-2.392,0-1.153-.022-2.194-.045-2.615a2.485,2.485,0,0,0-2.548-2.613,3.235,3.235,0,0,0-3.3,2.9c0,.421-.022,1.086-.022,1.883,0,.82.023,1.794.023,2.836a.338.338,0,0,0,.376.376,5.645,5.645,0,0,0,.621-.022.6.6,0,1,1,.023,1.2h-.023c-.576-.022-1.174-.045-1.728-.045s-1.107.023-1.617.046a.574.574,0,0,1-.665-.576.609.609,0,0,1,.642-.621h.022c.288,0,.354.022.709.022a.333.333,0,0,0,.354-.377c.023-1.795.044-4.586.043-7.244,0-1.884-.023-3.678-.023-5.007,0-.576-.177-.886-.754-.908a4.33,4.33,0,0,0-.487.022H137.1a.6.6,0,0,1-.62-.62c0-.377.177-.665,1.129-.665a4.715,4.715,0,0,1,.555.044,1.544,1.544,0,0,1,1.5,1.683q0,.6,0,1.264c0,1.794-.021,3.788-.021,4.1,0,.066.022.111.044.111s.045-.022.089-.067a4.149,4.149,0,0,1,3.278-1.507,3.509,3.509,0,0,1,3.7,3.544c.022.93.045,3.478.045,5.228,0,.243.111.4.377.4.332,0,.31-.022.621-.022h.022a.6.6,0,1,1,0,1.2Z"/><path class="cls-1" d="M31.693,18.162l-7.006-4.754V2.215A2.218,2.218,0,0,0,22.471,0H2.215A2.218,2.218,0,0,0,0,2.215V16.951a2.218,2.218,0,0,0,2.215,2.215h9.566L8.173,22.8a.549.549,0,1,0,.779.775l3.391-3.413,3.391,3.413a.55.55,0,0,0,.78-.775l-3.608-3.631h9.565a2.218,2.218,0,0,0,2.216-2.215V14.737l6.389,4.334a.549.549,0,1,0,.617-.909Zm-8.106-5.5-3.758-2.55a.55.55,0,0,0-.617.91l4.375,2.968v2.96a1.117,1.117,0,0,1-1.116,1.116H2.215A1.118,1.118,0,0,1,1.1,16.951V2.215A1.118,1.118,0,0,1,2.215,1.1H22.471a1.117,1.117,0,0,1,1.116,1.116Z"/></g></g></svg>